<?xml version="1.0" encoding="UTF-8" standalone="no"?>
<!-- Created with Inkscape (http://www.inkscape.org/) -->

<svg
   width="263.38159mm"
   height="132.78775mm"
   viewBox="0 0 263.38159 132.78775"
   version="1.1"
   id="svg1"
   xmlns="http://www.w3.org/2000/svg"
   xmlns:svg="http://www.w3.org/2000/svg">
  <defs
     id="defs1" />
  <g
     id="layer1"
     transform="translate(61.85885,39.200318)">
    <path
       style="fill:#e7a01d;fill-opacity:1;stroke:#b8ffff;stroke-width:0;stroke-linecap:round;stroke-linejoin:round;stroke-miterlimit:4.1"
       d="m -51.185987,-25.120924 c 36.802972,-22.081791 49.6840139,-11.77696 63.301114,-11.0409 27.027622,1.46097 16.229062,6.1419 45.635682,16.56134 8.752797,3.10132 26.401814,-15.65022 37.539034,-15.82528 13.976687,-0.21969 35.220747,13.44272 49.315977,13.98513 17.99738,0.69258 33.12268,-18.76952 43.05949,-13.98513 9.9368,4.78439 12.14498,43.79554 13.24906,48.94795 1.10409,5.15242 0.36803,47.843859 0.36803,47.843859 0,0 -19.50557,31.28253 -20.97769,31.28253 -1.47212,0 -67.71747,1.84015 -78.75836,0.36804 -11.040897,-1.47214 -108.5687691,-2.94426 -110.0408881,-2.94426 -1.472119,0 -42.6914489,-5.52045 -44.8996279,-12.51299 -2.208178,-6.99257 -8.464685,-70.293679 -8.464685,-70.293679 z"
       id="path1-5" />
  </g>
</svg>
