<?xml version="1.0" encoding="UTF-8" standalone="no"?>
<!-- Created with Inkscape (http://www.inkscape.org/) -->

<svg
   width="263.38159mm"
   height="132.78778mm"
   viewBox="0 0 263.38159 132.78778"
   version="1.1"
   id="svg1"
   xmlns="http://www.w3.org/2000/svg"
   xmlns:svg="http://www.w3.org/2000/svg">
  <defs
     id="defs1" />
  <g
     id="layer1"
     transform="translate(33.858739,-177.29609)">
    <path
       style="fill:#32d6d8;fill-opacity:1;stroke:#b8ffff;stroke-width:0;stroke-linecap:round;stroke-linejoin:round;stroke-miterlimit:4.1"
       d="m 236.58948,78.999728 c 36.80297,-22.08179 49.68401,-11.77696 63.30111,-11.0409 27.02762,1.46097 16.22907,6.1419 45.63569,16.56134 8.7528,3.10132 26.40181,-15.65022 37.53903,-15.82528 13.97669,-0.21969 35.22075,13.44272 49.31598,13.98513 17.99738,0.69258 33.12268,-18.76952 43.05949,-13.98513 9.9368,4.78439 12.14498,43.795542 13.24906,48.947952 1.10409,5.15242 0.36803,47.84387 0.36803,47.84387 0,0 -19.50557,31.28253 -20.97769,31.28253 -1.47212,0 -67.71747,1.84015 -78.75836,0.36804 -11.0409,-1.47214 -108.56878,-2.94426 -110.04089,-2.94426 -1.47212,0 -42.69145,-5.52045 -44.89963,-12.51299 -2.20818,-6.99257 -8.46469,-70.29369 -8.46469,-70.29369 z"
       id="path1-8" />
    <path
       style="fill:#6dd17f;fill-opacity:1;stroke:#b8ffff;stroke-width:0;stroke-linecap:round;stroke-linejoin:round;stroke-miterlimit:4.1"
       d="m -23.185873,191.37547 c 36.802972,-22.08179 49.684014,-11.77696 63.301114,-11.0409 27.027624,1.46097 16.229066,6.1419 45.635687,16.56134 8.752798,3.10132 26.401812,-15.65022 37.539032,-15.82528 13.97669,-0.21969 35.22075,13.44272 49.31598,13.98513 17.99738,0.69258 33.12268,-18.76952 43.05949,-13.98513 9.9368,4.78439 12.14498,43.79554 13.24906,48.94795 1.10409,5.15242 0.36803,47.84387 0.36803,47.84387 0,0 -19.50557,31.28253 -20.97769,31.28253 -1.47212,0 -67.71747,1.84015 -78.75836,0.36804 -11.0409,-1.47214 -108.568775,-2.94426 -110.040894,-2.94426 -1.472119,0 -42.691449,-5.52045 -44.899628,-12.51299 -2.208178,-6.99257 -8.464685,-70.29369 -8.464685,-70.29369 z"
       id="path1" />
  </g>
</svg>
